<?xml version="1.0" encoding="utf-8"?>
<!-- Generator: Adobe Illustrator 22.1.0, SVG Export Plug-In . SVG Version: 6.00 Build 0)  -->
<svg version="1.1" id="Layer_1" xmlns="http://www.w3.org/2000/svg" xmlns:xlink="http://www.w3.org/1999/xlink" x="0px" y="0px"
	 viewBox="0 0 182.9 128" style="enable-background:new 0 0 182.9 128;" xml:space="preserve">
<style type="text/css">
	.st0{fill:#FFFFFF;}
	.st1{fill:#666666;}
</style>
<title>man</title>
<path class="st0" d="M98.8,22.7c2.7-0.6,5.5-0.6,8.2,0.1c1.3,0.5,2.6,1.2,3.8,2c1.4,1,2.6,2.3,3.4,3.8c0.5,0.8,0.8,1.6,1.3,2.4
	c0.4,0.9,0.8,1.9,1.2,2.9c0.5,1,0.8,2.1,0.9,3.3c-0.2,2.2-0.1,4.3,0.2,6.5c0.2,0.9,0.6,1.8,1.2,2.5c0.7-1,0.9-2.3,1.4-3.4
	c0.4-1.1,1.1-1.9,2.1-2.4c1,0,1.7,1,2.1,1.9c0.4,1.4,0.7,2.9,0.8,4.4c0.3,2.2,0.1,4.5-0.6,6.6c-0.4,1.1-0.9,2.2-1.4,3.2
	c-1,2.3-1.7,4.7-2.6,7c-0.2,0.4-0.4,0.9-0.6,1.3c-0.3-0.1-0.7-0.3-1-0.4c0.2-2,0.7-3.9,1-5.9c0.4-2.3,0.3-4.7,0.5-7
	c0.1-2.4,0.8-4.7,2-6.8c0.5-0.7,0.9-1.5,1.2-2.3h-0.9c-0.8,1.7-1.7,3.2-2.6,4.8c-0.4,0.7-0.8,1.4-0.9,2.2c-0.2,2.3,0.1,4.6-0.2,6.9
	c-0.1,1.2-0.5,2.3-0.7,3.5c-0.8,4-1.1,8.1-2.2,12.1c-0.7,3.2-2.1,6.1-4.2,8.7c-2.4,3.1-5.3,5.9-8.5,8.2c-1.9,1.5-4,2.6-6.3,3.2
	c-1.7,0.3-3.5,0.4-5.2,0.4c-1.3,0.1-2.6-0.1-3.8-0.7c-2-1.1-3.9-2.4-5.5-4c-2.8-2.4-5.1-5.3-6.7-8.7c-2.8-5.2-3.5-11.1-4.6-16.9
	c-0.1-1.8-0.6-3.6-1.3-5.3c-0.1-0.3-0.4-0.5-0.6-0.6c-0.1,3.3,1,6.4,1.4,9.7c-0.7-0.2-1.4-0.6-2.1-1c-0.5-0.5-1-1.2-1.2-1.9
	c-1.2-2.4-2.2-5-2.9-7.5c-0.3-0.8-0.4-1.7-0.3-2.5c0.1-1.1,0.7-2.1,1.5-2.8c0.2-0.3,0.6-0.2,0.9-0.2c0.8,1.5,1.2,3,1.9,4.5
	c0.2,0.5,0.3,1.1,0.8,1.5c0.2-1.5,0.1-3.1-0.2-4.6c-0.1-0.7-0.3-1.3-0.7-1.8c-1.6-1.8-3.9-3-5-5.2c0.4-0.3,0.8-1,1.4-0.9
	c1.5,0.9,2.2,2.5,3.4,3.8c0.6-2.1,0.9-4.3,1-6.5c0.2-1.4,0.1-2.9-0.2-4.2c-0.4-1.7-0.6-3.5-0.3-5.2c0.4-1.9,1.4-3.7,2.8-5.2
	c1-1.2,2.3-2.1,3.8-2.6c1.8-0.9,3.9-1.1,5.9-0.6c2,0.6,4,1.5,5.7,2.6c0.7,0.7,1.8,0.9,2.8,0.5c1.7-1,3.5-1.9,5.4-2.6
	C96.4,23.3,97.6,22.9,98.8,22.7 M100.2,44c-0.9,0.1-1.6,0.7-2,1.5c-0.4,1-0.5,2.1-0.3,3.1c1-0.3,1.8-0.8,2.8-1.1
	c3.2-1.4,6.7-1.9,10.1-1.6c1.3,0.2,2.2,1.2,3.3,2c0.4,0.4,0.9-0.2,1.2-0.4c-0.6-0.5-1.1-0.9-1.7-1.3c-1.8-1.4-3.7-3.1-6.1-3.2
	C104.9,43,102.5,43.4,100.2,44 M73.5,45c-0.7,0.9-1.1,2-1.1,3.2c1.2-0.3,2-1.4,3.3-1.6c3.2-0.3,6.5,0.3,9.7,0.7
	c0.7,0,1.4,0.1,2.1,0.5c1.2,0.9,1.5,2.5,2.4,3.7c0.3,0.5,0.9,0.2,1.3,0.2c-0.5-1.6-1.2-3.1-2.3-4.5c-1.3-1.8-3.6-2.4-5.7-2.9
	c-1.5-0.3-3-1-4.6-1C76.7,43.1,74.9,43.8,73.5,45 M122,47.4c-0.1,0.5,0.4,0.8,0.7,1.2c0.9,0.9,0.7,2.3,0.3,3.4s-1.1,1.9-1.4,2.9
	c1.7-0.7,2.8-2.4,2.6-4.3c-0.3-1.4-1-2.8-1.9-3.9C122.2,46.9,122,47.1,122,47.4 M102.3,47.2c-2,0.7-4,2-4.8,4.1
	c0.2,0,0.4-0.1,0.7-0.2c1.5-1,2.8-2.4,4.5-3.1s3.2,0.1,4.8,0.1c0.3,0,0.8,0,1-0.3C106.5,47.2,104.4,46.5,102.3,47.2 M76.2,49.7
	c2,0.1,3.8-0.7,5.7-0.9c1.6-0.2,3.1,0.6,4.7,0.7C85,48.3,83,47.7,81,47.8C79.3,47.9,77.6,48.5,76.2,49.7 M102.1,48.9
	c-1.1,0.5-1.9,1.4-2.4,2.6c0.9-0.1,1.7-0.8,2.6-1c0.7,0.5,1.2,1.5,2.2,1.5c1.2,0.1,2.1-1.2,3.3-1.2c1,0.2,2.1,0.4,3.1,0.6
	c0.1-0.4,0.3-0.7,0.4-1.1c-2-0.9-4.1-1.5-6.2-1.8C104,48.3,102.9,48.4,102.1,48.9 M78.1,50.2c-0.8,0.3-1.4,0.9-1.9,1.6
	c1.3,0.1,2.6-0.1,3.9,0C81,51.9,82,52,82.9,52c1.5-0.2,3-0.3,4.5,0c0.1-0.3,0.1-0.6,0.2-0.9c-2-0.8-4-1.7-6.2-1.8
	C80.2,49.3,79.1,49.6,78.1,50.2 M90.5,52.3c-0.5,1.7-0.8,3.5-0.9,5.3c-0.1,1.9,0,3.8,0.2,5.7c0.4,0.2,0.9,0.2,1.4,0.2
	c0-1,0.1-1.9,0.1-2.9c-0.1-2.6,0-5.3,0.2-7.9C91.4,52.4,90.8,52.4,90.5,52.3 M66.5,55.9c-0.2,1.4,0.3,2.9,1.5,3.7
	c-0.3-1.9-0.4-3.8-0.7-5.7C66.8,54.4,66.5,55.2,66.5,55.9 M86,66.1c1.5,1.1,3,2.1,4.6,3c0.9,0.5,1.9,0.5,2.8,0.1
	c1.4-0.6,2.8-1.4,4.2-2c0.6-0.3,1.2-0.5,1.5-1.1c-1-0.3-2.1-0.2-3,0.2c-1.3,0.5-2.4,1.7-3.9,1.6c-1.8-0.1-3.1-1.4-4.6-2.2
	c0.1-1.2,0.4-2.3,0.5-3.4c-0.3-0.2-0.6-0.3-0.9-0.5C86.5,63.2,86.2,64.7,86,66.1 M94.8,62c0.2,1,0.7,1.9,1.4,2.6
	c0.1-0.8,0.2-1.6,0.3-2.3C95.9,62.1,95.4,62,94.8,62 M100.3,72.6c-2.3,0.5-4.7,0.7-7,0.6c-3.7,0-7.3-0.6-10.9-0.9
	c1.7,2.4,4.1,4.3,6.9,5.4c2.8,1.1,5.8,1.2,8.6,0.3c0.9-0.4,1.7-0.9,2.4-1.4c1.8-1.2,3.4-2.6,5-4.1c0.2-0.2,0.4-0.5,0.6-0.7
	C103.9,71.7,102,72,100.3,72.6L100.3,72.6z"/>
<path class="st0" d="M60.1,47.5c1.1,0.7,1,2.3,0.5,3.3c-0.2-0.2-0.3-0.4-0.3-0.6C60.1,49.3,60,48.4,60.1,47.5z"/>
<path class="st0" d="M103.9,49.8c0.7-0.2,1.7,0.2,1.7,1l-2.1,0.2C103.6,50.6,103.5,50,103.9,49.8z"/>
<path class="st0" d="M81.1,50.6c0.6-0.5,1.5-0.4,2,0.2c0.1,0.1,0.1,0.1,0.1,0.2c0.1,0.2-0.1,0.5-0.4,0.6c-0.7,0-1.3,0-2-0.1
	C80.9,51.3,80.9,50.9,81.1,50.6L81.1,50.6z"/>
<path class="st0" d="M85.4,74.1c3.8-0.1,7.6,0.1,11.4,0.2c1.6,0,3.3-0.2,4.9-0.2c-1.8,1.5-4,2.5-6.4,2.7c-3,0.3-6.1-0.3-8.8-1.8
	C86.1,74.8,85.8,74.5,85.4,74.1L85.4,74.1z"/>
<path class="st0" d="M94.5,98.3c0.1-0.6,0.4-1.2,0.7-1.7c0.9,0.8,1.6,1.8,1.8,3C96.2,99.3,95.3,98.9,94.5,98.3L94.5,98.3z"/>
<path class="st0" d="M92.8,102.2c-0.6-0.5,0.5-1.2,1-0.8c1.3,0.8,2.9,1.6,3.5,3.1C95.5,104.4,93.9,103.5,92.8,102.2z"/>
<path class="st0" d="M93.8,104.6c1.1,0.5,2,1.2,2.7,2.2c-0.6,0.3-1.3,0.7-1.9,0.3C93.9,106.4,93.6,105.5,93.8,104.6z"/>
<path class="st0" d="M94.3,108.6c0.4,0,1-0.2,1.3,0.1c-0.2,0.4-0.5,0.6-0.8,0.8c-0.7,0.6-1.5,1-2.4,1.3
	C92.7,109.9,93.4,109,94.3,108.6L94.3,108.6z"/>
<path class="st0" d="M96.6,111.8c0.6-0.5,1.4-0.6,2.2-0.4c-0.2,0.4-0.5,0.7-0.8,1c-2.2,2.1-4.8,3.8-6.9,5.9c-0.3,0.4-0.7,0-1-0.1
	C91.5,115.4,94.2,113.7,96.6,111.8z"/>
<path class="st0" d="M96.8,115.1c0.9-0.7,1.8-1.3,2.7-1.9c0.6,0.7,0.9,1.7,1,2.6c0,0.3-0.2,0.6-0.4,0.8c-1.6,1.7-3.4,3.1-5.1,4.6
	c-1.4,1.2-2.7,2.4-4.1,3.5c-0.7,0.6-1.5,1.1-2.4,1.4c0-1.1,0.2-2.3,0.5-3.4c0.4-1.2,1.1-2.3,2.1-3.2C92.9,118,94.8,116.6,96.8,115.1
	L96.8,115.1z"/>
<path class="st1" d="M88.1,3c3.3-0.6,6.6,0.4,9.9,0.5c2.5,0.1,5.1,0.1,7.4,1.1c2,1,3.7,2.3,5.7,3.3c2.7,1.4,4.2,4.1,5.8,6.5
	c1.2,1.7,2.4,3.5,3.5,5.2c0.8,1.2,1.5,2.5,1.9,3.9c0.5,3.7,0.6,7.5,0.1,11.3c-0.1,1.3-0.1,2.5-0.1,3.8c1.1,0.5,2.2,1.1,3.3,1.8
	c0.4,0.3,0.5,0.8,0.6,1.2c1.1,3.9,1.2,8,0.2,11.9c-0.4,1.8-1.6,3.2-2.2,5s-0.8,3.5-1.5,5.2c-0.2,0.7-0.6,1.4-1.1,2
	c-0.7,0.6-1.5,1.1-2.3,1.6c-0.2,0.2-0.3,0.5-0.4,0.8c-0.5,2.8-1.2,5.5-2.1,8.2c-0.2,0.3,0,0.5,0.3,0.7c6,4.2,10.6,10.1,16.3,14.6
	c1.1,1,2.4,1.8,3.8,2.4c1.5,0.6,2.9,1.1,4.4,1.6c8,3,15.5,6.9,23.3,10.2c2.5,1.2,4.7,3.1,7.2,4.3c1.6,0.9,2.9,2.4,3.6,4.2
	c1.9,4.3,3.5,8.8,4.9,13.3c-12.1,0.1-24.1,0-36.2,0c-10.8,0-21.7,0-32.5,0c0.7-2.6,1.6-5.1,2.2-7.7c1-4,1.6-8.1,1.9-12.2
	c0.7-8.2,0.9-16.4,0.5-24.6c0-1-0.1-2-0.2-3c-0.6-0.3-1.3-0.2-1.9,0.2c-1.5,1.5-2.7,3.1-4.1,4.7c-2.2,2.6-4.9,4.7-7.9,6.3
	c-1.4,0.8-2.9,1.5-4.4,2c-1.4,0.4-2.9,0.6-4.2,1.1c0.5,0.7,1.7,0.7,2,1.5c2.8,5,5.9,9.8,9.2,14.5c0.4,0.4,0.7,0.9,0.9,1.4
	c-0.1,0.4-0.3,0.8-0.7,1c-2.6-2.7-3.9-6.2-6.1-9.2c-0.8,1.4-1.3,2.8-1.7,4.4c-0.2,0.4,0.1,0.7,0.3,1c2,2.8,3.6,5.8,4.9,9
	c1.3,3.1,2.4,6.3,3.2,9.6c-0.9,0-1.9,0-2.8,0c0.4-0.6,1.2-1.1,1.1-1.9c-0.1-0.9-0.5-1.8-1-2.6c-2.2,1.2-4.2,2.7-6,4.4
	c-0.6,0.2-1.2,0.2-1.9,0.1c1.5-1.3,3.1-2.6,4.7-3.9c1.2-0.8,2.1-1.9,2.6-3.3c-0.9,0.3-1.7,0.7-2.5,1.3c-2.5,1.7-4.8,3.5-7,5.6
	c-0.3,0.4-0.8,0.3-1.3,0.3c-1.6,0-3.2,0-4.8,0c0-3,0.5-5.9,1.3-8.8c1.1-3.2,1.2-6.7,3-9.6c0.4-0.7,1.2-1.2,1.6-1.9
	c-0.1-1-0.3-1.9-0.7-2.9c-0.3,0-0.7-0.1-1-0.2c-1.4,3.1-3,6.2-4.8,9.1l-1-0.4c0.4-1,0.8-2,1.3-3c2.1-4.4,4.5-8.7,6.5-13.1
	c0.2-0.3,0.3-0.8,0.1-1.1c-0.5-0.8-1.4-1-2.2-1.3c-1.4-0.4-2.7-0.9-4-1.5c-3.2-1.8-5.6-4.6-8.3-6.8c-0.2-0.2-0.5-0.4-0.8-0.5
	c0,2.7,0.1,5.5,0.4,8.2c0.4,4.4,0,8.9,0.5,13.3c0.8,5,1.4,10,2.2,15c0.2,1.8,0.6,3.7,0.8,5.5c-26.5,0-53,0-79.5,0
	c0.6-1.5,1.7-2.8,2.3-4.2c0.6-1.1,0.6-2.4,1.2-3.4c0.6-1.4,1.2-2.9,1.9-4.3c0.4-1,0.9-1.9,1.5-2.8c0.4-0.5,0.6-1,1-1.5
	c1.2-1.4,2.6-2.6,4.1-3.7c1.3-0.5,2.6-0.7,3.9-1.2c2.5-1.1,5.2-1.8,7.7-3c1.6-0.8,3.4-1,5-1.7c1-0.4,2-0.7,3-1
	c1.3-0.3,2.5-0.9,3.8-1.1c1.1-0.2,2.1-0.7,3.2-0.9c1.8-0.4,3.5-1.2,5.4-1.5c1.8-0.4,3.5-1,5.1-1.9c1.5-0.5,3-1.1,4.5-1.6
	c0.8-0.4,1.6-0.8,2.3-1.3c0.6-0.4,1.3-0.7,2-1.2c1.2-0.8,2.7-1.4,3.8-2.4c3-2.1,5.8-4.5,8.6-6.8c0.7-0.6,1.6-1.2,1.7-2.1
	c-0.3-1.5-0.8-2.9-1.5-4.2c-0.6-1.6-1-3.3-1.2-5c-0.1-0.9-0.4-1.7-0.8-2.4c-1.1-1-2.4-1.6-3.4-2.6c-0.5-0.5-0.9-1.1-1.2-1.8
	c-1.2-2.2-2.2-4.6-3-7c-0.5-1.5-0.7-3.1-0.8-4.7c-0.4-3.1-0.5-6.2-0.3-9.2c1.1-0.4,2.3-0.6,3.5-0.8c0-0.8-0.1-1.6-0.4-2.3
	c-0.7-2-1.1-4-1.4-6.1c0-1.5,0.2-3,0.3-4.5c0.4-3.9,0.9-7.9,1.7-11.8c0.3-1.9,1.8-3.2,2.9-4.7c1-1.2,1.8-2.7,3.3-3.4
	c1.8-0.9,3.6-1.9,5.4-2.7c1.5-0.8,3.2-1,4.7-1.6C84.3,4.4,86.2,3.6,88.1,3 M98.8,22.7c-1.2,0.2-2.4,0.6-3.6,0.9
	c-1.9,0.7-3.7,1.6-5.4,2.6c-0.9,0.4-2,0.2-2.8-0.5c-1.8-1.2-3.7-2.1-5.7-2.7c-2-0.5-4-0.3-5.9,0.5c-1.5,0.5-2.8,1.4-3.8,2.6
	c-1.4,1.4-2.3,3.2-2.8,5.2c-0.2,1.7-0.1,3.5,0.3,5.2c0.3,1.4,0.4,2.8,0.2,4.2c0,2.2-0.4,4.4-1,6.5c-1.2-1.2-1.9-2.8-3.4-3.8
	c-0.6-0.1-1,0.5-1.4,0.9c1.1,2.2,3.4,3.4,5,5.2c0.4,0.5,0.6,1.2,0.7,1.8c0.3,1.5,0.4,3,0.2,4.6c-0.5-0.3-0.6-1-0.8-1.5
	c-0.7-1.5-1.1-3.1-1.9-4.5c-0.3,0-0.7-0.1-0.9,0.2c-0.8,0.7-1.3,1.7-1.5,2.8c0,0.9,0.1,1.7,0.3,2.5c0.7,2.6,1.7,5.1,2.9,7.5
	c0.3,0.7,0.7,1.4,1.2,1.9c0.6,0.4,1.3,0.8,2.1,1c-0.3-3.2-1.5-6.4-1.4-9.7c0.3,0.1,0.5,0.3,0.6,0.6c0.9,1.6,1,3.5,1.3,5.3
	c1.2,5.7,1.9,11.6,4.6,16.9c1.6,3.3,3.9,6.3,6.7,8.7c1.6,1.6,3.5,2.9,5.5,4c1.2,0.5,2.5,0.8,3.8,0.7c1.7,0,3.5-0.1,5.2-0.4
	c2.3-0.7,4.4-1.7,6.3-3.2c3.2-2.3,6.1-5.1,8.5-8.2c2-2.5,3.5-5.5,4.2-8.7c1.1-4,1.4-8.1,2.2-12.1c0.2-1.2,0.6-2.3,0.7-3.5
	c0.3-2.3,0-4.6,0.2-6.9c0.1-0.8,0.4-1.5,0.9-2.2c0.9-1.6,1.8-3.2,2.6-4.8h0.9c-0.3,0.8-0.6,1.6-1.2,2.3c-1.2,2.1-1.9,4.4-2,6.8
	c-0.2,2.3-0.2,4.7-0.5,7c-0.3,2-0.8,3.9-1,5.9c0.3,0.1,0.7,0.2,1,0.4c0.3-0.4,0.5-0.8,0.6-1.3c0.9-2.3,1.7-4.7,2.6-7
	c0.4-1.1,1-2.2,1.4-3.2c0.6-2.1,0.8-4.4,0.6-6.6c-0.1-1.5-0.3-2.9-0.8-4.4c-0.4-0.9-1-1.9-2.1-1.9c-1,0.5-1.8,1.4-2.1,2.4
	c-0.5,1.1-0.7,2.4-1.4,3.4c-0.6-0.7-1-1.6-1.2-2.5c-0.3-2.1-0.4-4.3-0.2-6.5c-0.1-1.1-0.4-2.2-0.9-3.3c-0.4-1-0.8-1.9-1.2-2.8
	c-0.5-0.8-0.8-1.7-1.3-2.4c-0.8-1.5-2-2.8-3.4-3.8c-1.2-0.8-2.5-1.5-3.8-2C104.4,22.1,101.5,22,98.8,22.7 M64,47
	c-0.1,0.9,0,1.8,0.2,2.7c0,0.2,0.1,0.5,0.3,0.6C65,49.2,65.1,47.7,64,47 M94.5,98.3c0.8,0.5,1.7,0.9,2.6,1.3c-0.2-1.2-0.9-2.2-1.8-3
	C94.9,97.1,94.6,97.7,94.5,98.3 M92.8,102.2c1.2,1.3,2.7,2.1,4.4,2.3c-0.6-1.5-2.2-2.3-3.5-3.1C93.3,101.1,92.1,101.7,92.8,102.2
	 M93.8,104.5c-0.2,0.9,0.1,1.8,0.7,2.5c0.6,0.3,1.3-0.1,1.9-0.3C95.8,105.7,94.9,105,93.8,104.5 M94.3,108.5c-1,0.5-1.7,1.3-2,2.3
	c0.9-0.3,1.7-0.7,2.4-1.3c0.3-0.2,0.7-0.5,0.8-0.8C95.3,108.4,94.7,108.5,94.3,108.5 M96.6,111.8c-2.4,1.9-5.1,3.6-6.6,6.4
	c0.3,0.2,0.7,0.5,1,0.1c2.2-2.1,4.7-3.8,6.9-5.9c0.3-0.3,0.6-0.6,0.8-1C98,111.1,97.2,111.3,96.6,111.8 M96.8,115
	c-2,1.5-3.9,2.9-5.7,4.6c-1,0.8-1.7,1.9-2.1,3.2c-0.3,1.1-0.4,2.2-0.5,3.4c0.9-0.3,1.7-0.8,2.4-1.4c1.4-1.1,2.7-2.4,4.1-3.5
	c1.7-1.5,3.6-2.9,5.1-4.6c0.2-0.2,0.4-0.5,0.4-0.8c-0.1-1-0.4-1.9-1-2.6C98.6,113.8,97.7,114.4,96.8,115L96.8,115z"/>
<path d="M100.2,44c2.4-0.6,4.8-1,7.2-1.2c2.4,0.1,4.3,1.8,6.1,3.2c0.6,0.5,1.1,0.9,1.7,1.3c-0.3,0.3-0.7,0.8-1.2,0.4
	c-1-0.7-2-1.7-3.3-2c-3.4-0.3-6.9,0.2-10.1,1.6c-0.9,0.3-1.8,0.8-2.8,1.1c-0.2-1.1,0-2.1,0.3-3.1C98.6,44.7,99.3,44.1,100.2,44z"/>
<path d="M73.5,45c1.4-1.2,3.2-1.9,5.1-1.8c1.6,0,3,0.7,4.6,1c2.1,0.5,4.4,1.1,5.7,2.9c1,1.3,1.8,2.9,2.3,4.5c-0.4,0-1.1,0.3-1.3-0.2
	c-0.8-1.2-1.2-2.7-2.4-3.7c-0.6-0.4-1.4-0.5-2.1-0.5c-3.2-0.3-6.4-1-9.7-0.7c-1.3,0.2-2.1,1.3-3.3,1.6C72.4,47,72.8,45.9,73.5,45z"
	/>
<path class="st1" d="M122,47.4c0-0.3,0.2-0.5,0.4-0.6c0.9,1.1,1.6,2.5,1.9,3.9c0.2,1.9-0.9,3.6-2.6,4.3c0.3-1,1-1.9,1.4-2.9
	s0.6-2.5-0.3-3.4C122.5,48.2,121.9,47.9,122,47.4z"/>
<path d="M102.4,47.2c2-0.8,4.2,0,6.2,0.6c-0.2,0.3-0.7,0.2-1,0.3c-1.6,0-3.3-0.6-4.8-0.1s-3,2.1-4.5,3.1c-0.2,0.1-0.4,0.2-0.7,0.2
	C98.3,49.3,100.4,48,102.4,47.2z"/>
<path d="M76.2,49.7c1.3-1.2,3-1.8,4.8-1.8c2-0.2,4.1,0.4,5.7,1.7c-1.6-0.1-3.1-0.9-4.7-0.7C80,49,78.2,49.7,76.2,49.7z"/>
<path d="M102.1,48.9c0.9-0.5,2-0.6,3-0.4c2.1,0.3,4.2,0.9,6.2,1.8c-0.1,0.4-0.2,0.8-0.4,1.1c-1-0.3-2-0.5-3.1-0.6
	c-1.2,0-2.1,1.3-3.3,1.2c-1,0-1.4-1-2.2-1.5c-0.9,0.2-1.7,0.8-2.6,1C100.1,50.4,101,49.4,102.1,48.9 M104,49.8
	c-0.4,0.3-0.4,0.8-0.4,1.2l2.1-0.2C105.6,50,104.6,49.6,104,49.8z"/>
<path d="M78.1,50.2c1-0.6,2.1-0.9,3.2-0.9c2.2,0.1,4.2,1.1,6.2,1.8c0,0.3-0.1,0.6-0.2,0.9c-1.5-0.2-3-0.2-4.5,0
	c-0.9,0-1.8-0.1-2.7-0.3c-1.3-0.1-2.6,0-3.9,0C76.7,51.1,77.4,50.5,78.1,50.2 M81.1,50.7c-0.2,0.3-0.2,0.6-0.2,1
	c0.7,0.1,1.3,0.1,2,0.1c0.2,0,0.5-0.3,0.4-0.6c-0.4-0.7-1.2-1-1.9-0.6C81.3,50.6,81.2,50.6,81.1,50.7L81.1,50.7z"/>
<path d="M90.5,52.3c0.3,0.2,0.9,0.1,1.1,0.5c-0.3,2.6-0.4,5.3-0.2,7.9c0.1,1,0,1.9-0.1,2.9c-0.5,0-0.9-0.1-1.4-0.2
	c-0.3-1.9-0.3-3.8-0.2-5.7C89.7,55.8,90,54,90.5,52.3z"/>
<path class="st1" d="M66.5,56.4c0-0.7,0.4-1.5,0.9-2c0.2,1.9,0.4,3.8,0.6,5.7C66.8,59.3,66.3,57.8,66.5,56.4z"/>
<path d="M86.1,66.1c0.2-1.5,0.6-2.9,1.1-4.3c0.3,0.1,0.6,0.3,0.9,0.5c-0.1,1.2-0.4,2.3-0.5,3.4c1.5,0.8,2.8,2.1,4.6,2.2
	c1.5,0,2.6-1.1,3.9-1.6c0.9-0.4,2-0.5,3-0.2c-0.3,0.6-1,0.8-1.5,1.1c-1.4,0.7-2.8,1.4-4.2,2c-0.9,0.4-1.9,0.4-2.8-0.1
	C89.1,68.1,87.6,67.1,86.1,66.1L86.1,66.1z"/>
<path d="M94.8,62c0.6,0,1.1,0.1,1.6,0.2c0,0.8-0.1,1.6-0.3,2.4C95.5,63.9,95,63,94.8,62z"/>
<path d="M100.3,72.6c1.8-0.6,3.7-0.9,5.6-0.9c-0.2,0.2-0.4,0.5-0.6,0.7c-1.6,1.5-3.2,2.9-5,4.1c-0.8,0.6-1.6,1.1-2.5,1.5
	c-2.8,0.9-5.9,0.8-8.6-0.3c-2.8-1.1-5.1-2.9-6.8-5.4c3.7,0.2,7.3,0.9,10.9,0.9C95.6,73.4,98,73.2,100.3,72.6 M85.5,74.2
	c0.3,0.3,0.7,0.6,1.1,0.8c2.7,1.5,5.7,2.2,8.8,1.9c2.4-0.2,4.6-1.2,6.4-2.7c-1.6,0-3.3,0.2-4.9,0.2C93,74.2,89.2,74,85.5,74.2
	L85.5,74.2z"/>
<ellipse transform="matrix(0.978 -0.2086 0.2086 0.978 -9.4751 20.8611)" class="st0" cx="94.2" cy="55.4" rx="22.5" ry="28.3"/>
</svg>
