<?xml version="1.0" encoding="utf-8"?>
<!-- Generator: Adobe Illustrator 22.1.0, SVG Export Plug-In . SVG Version: 6.00 Build 0)  -->
<svg version="1.1" id="Layer_1" xmlns="http://www.w3.org/2000/svg" xmlns:xlink="http://www.w3.org/1999/xlink" x="0px" y="0px"
	 viewBox="0 0 128 128" style="enable-background:new 0 0 128 128;" xml:space="preserve">
<style type="text/css">
	.st0{fill:#666666;}
	.st1{fill:#666666;stroke:#666666;}
	.st2{fill:#FFFFFF;stroke:#666666;}
	.st3{fill:url(#SVGID_1_);}
	.st4{fill:none;stroke:#666666;}
</style>
<title>woman</title>
<path class="st0" d="M7.7,64.9C16.2,65,26,63,28,54.6C29.9,46.4,28.9,4,59.1,3c29-1,36.6,23.3,39.1,36.6c8,42.7-2.5,71.5-63.3,54.2
	c-6.9-4-11-4.2-15.7-10.5c4.1,0.1,6.3,0.4,6.9-3.7c-5.5,0.2-10.9-0.3-12.9-9.8c10,1.4,14.6-3,18.9-9.5C27,68.2,21,72.7,7.7,64.9z"/>
<path class="st0" d="M28.6,57.2c4.4-5.9,5.8-13.3,6.9-21.9c3.1,8.5,3.3,16.9-2.2,24.2"/>
<path class="st1" d="M3.6,118.6c2.8-7.7,4-18,13.6-22.8l44.6-13.5l46.6,12.9c8.2,2.9,12.1,14.9,16,23.9c-2.6,1.8-4.8,4.5-7.8,5.2
	H10.9C7.5,123,5.8,120.7,3.6,118.6z"/>
<path class="st2" d="M48.7,72.4c0.2,5.8,0.9,11.1-1.8,16l6.5,35.8l15,0L80,85.8l-1-16.5L48.7,72.4L48.7,72.4z"/>
<path class="st2" d="M38.1,41.4c0.6,9.1,0.8,18.2,2.9,27.4c0,0,9.3,10.4,14.5,12.7s6.6,2,11.5-0.1s16.2-12.1,16.2-12.1
	C88,49.6,89.7,31,68.1,20L52.4,43.3l-0.4-9.1l-4,6.9C45.2,37.8,39.9,38.9,38.1,41.4L38.1,41.4z"/>
<path class="st0" d="M93.1,63.3C89,73,77.9,76.9,67.3,75.1c10.2,8,25.4,4.3,29-9.6"/>
<linearGradient id="SVGID_1_" gradientUnits="userSpaceOnUse" x1="-922.984" y1="21.9565" x2="-920.374" y2="22.8064" gradientTransform="matrix(32.85 0 0 42.77 30293.9902 -909.86)">
	<stop  offset="0" style="stop-color:#FFFFFF"/>
	<stop  offset="1" style="stop-color:#FFFFFF;stop-opacity:0"/>
</linearGradient>
<path class="st3" d="M38.1,41.5c1,9,1.5,17.8,3.5,27.1c5.2,5.3,15.7,17,22,13.5c4-0.9,5.1-2.2,7.4-3.4c-13.8,4.1-19.1-3.2-26.2-11.5
	L40,39.9L38.1,41.5z"/>
<path class="st4" d="M79.7,86.7l-11.2,37.7"/>
<path class="st4" d="M46.3,86.9l6.9,37.1"/>
</svg>
